<svg class="logo" version="1.2" xmlns="http://www.w3.org/2000/svg" viewBox="0 0 1206 1305">
	<style>
		.s0 { fill: #22c55e } 
		.s1 { fill: #64748b } 
	</style>
	<g id="Background">
		<path id="Path 0" class="s0" d="m118 476.6c-1.92 0.23-8.67 1.12-15 2-6.33 0.88-17.13 3.15-24 5.05-6.88 1.89-16.77 5.48-22 7.97-5.23 2.49-12.2 6.45-15.5 8.81-3.3 2.36-8.42 6.94-11.38 10.18-2.96 3.24-6.61 8.37-8.11 11.39-1.5 3.02-3.45 7.75-4.34 10.5-0.88 2.75-1.84 6.35-2.13 8-0.28 1.65-1.03 5.7-1.65 9-0.62 3.3-1.17 13.2-1.22 22-0.06 9.4 0.45 19.09 1.24 23.5 0.74 4.12 2.41 10.65 3.71 14.5 1.31 3.85 4.51 10.51 7.13 14.8 2.61 4.29 7.45 10.59 10.76 14 3.3 3.41 8.03 7.6 10.5 9.31 2.47 1.72 9.21 5.82 14.99 9.12 5.78 3.3 26.03 13.87 45 23.48 18.97 9.61 38.32 19.76 43 22.54 4.68 2.79 10.41 6.46 12.75 8.16 2.96 2.15 5.16 4.99 7.23 9.34 1.64 3.44 3.49 8.95 4.1 12.25 0.62 3.3 1.19 10.27 1.27 15.5 0.08 5.22-0.18 11.52-0.59 14-0.41 2.47-2.05 6.52-3.64 9-2.13 3.32-4.24 5.09-8.01 6.75-3.64 1.6-7.06 2.25-11.86 2.26-5.02 0-7.9-0.57-11.25-2.25-3.16-1.59-5.09-3.45-6.5-6.26-1.83-3.66-2.04-6.59-2.5-34l-0.5-30-114-0.52c1.05 36.55 2 50.38 2.89 55.52 0.85 4.95 2.27 11.47 3.15 14.5 0.89 3.02 3.11 8.65 4.96 12.5 1.84 3.85 5.3 9.21 7.68 11.92 2.37 2.7 7.24 7.11 10.82 9.8 3.58 2.68 10.33 6.84 15 9.23 4.67 2.39 12.55 5.77 17.5 7.5 4.95 1.73 11.47 3.78 14.5 4.55 3.03 0.77 6.85 1.67 8.5 2 1.65 0.33 6.83 1.24 11.5 2.03 4.67 0.79 15.03 1.95 23 2.58 8.25 0.65 21.18 0.87 30 0.52 8.53-0.34 20.45-1.27 26.5-2.06 6.05-0.8 15.28-2.4 20.5-3.56 5.22-1.16 13.55-3.46 18.5-5.12 4.95-1.66 13.95-5.44 20-8.41 6.05-2.96 13.66-7.55 16.91-10.19 3.25-2.63 7.3-6.52 9-8.63 1.98-2.46 3.01-4.79 2.88-6.5-0.12-1.46-5.85-33.49-12.75-71.16-11.92-65.12-12.66-68.6-15.08-70.5-1.4-1.1-7.59-5.06-13.75-8.81-6.17-3.74-20.43-11.39-31.71-17.01-11.28-5.61-24.55-11.99-29.5-14.17-4.95-2.18-14.18-6.55-20.5-9.72-6.32-3.17-13.64-7.34-16.25-9.27-2.61-1.94-5.86-5.21-7.21-7.27-1.35-2.06-3.15-6.45-4-9.75-0.85-3.3-1.55-9.83-1.55-14.5-0.01-4.67 0.64-10.75 1.43-13.5 0.87-3.01 2.76-6.3 4.76-8.27 1.83-1.8 5.57-4 8.32-4.89 3.43-1.11 6.57-1.41 10-0.96 2.75 0.35 6.35 1.44 8 2.41 1.65 0.97 3.9 3.55 5 5.74 1.78 3.53 2.03 6.26 2.25 24.72l0.25 20.75c57.35 0 74.16-0.34 74.35-0.75 0.2-0.41-3.74-23.13-8.75-50.48-6.04-33.01-9.6-50.2-10.6-51.16-0.82-0.79-6.22-2.58-12-3.99-5.78-1.4-15.22-3.29-21-4.19-7.43-1.16-18.83-1.72-39-1.93-15.68-0.16-30.07-0.12-32 0.1zm595.51 7.06c-0.47 0.37-0.78 78.79-0.69 174.26l0.15 173.58c7.39 1.17 31.24 1.51 57.78 1.51l48.25-0.01c0.22-114.31 0.55-164.38 0.89-185l0.61-37.5c2.61 13.17 10.86 55.47 20.01 102.5 9.15 47.02 16.87 86.85 17.17 88.5 0.29 1.65 1.75 9.3 3.24 17l2.72 14h75.86c6.48-35.65 8.58-47.35 8.84-49 0.26-1.65 7.27-40.8 15.59-87 8.32-46.2 15.45-85.58 15.85-87.5 0.39-1.92 0.95 47.58 1.22 110l0.5 113.5 106.5 0.5-0.07-350.01-158.39 0.51c-20.96 121.95-27.39 157.73-27.82 158.18-0.43 0.45-0.76 0.37-0.74-0.18 0.02-0.55-2.69-14.95-6.03-32-3.33-17.05-6.29-32.13-6.56-33.5-0.28-1.38-3.16-16.9-6.4-34.5-3.25-17.6-7.17-37.85-8.72-45l-2.81-13c-120.99-0.4-156.49-0.21-156.95 0.16z"/>
		<path id="Path 1" class="s1" d="m1178.92 12.38c-0.23 0.21-6.95 0.7-14.92 1.1-7.97 0.39-14.72 0.84-15 1-0.28 0.15-6.58 0.61-14 1.01-7.43 0.39-14.4 0.86-15.5 1.03-1.1 0.17-6.28 0.59-11.5 0.95-5.22 0.35-28.18 2.19-51 4.08-22.83 1.89-51.18 4.36-63 5.48-11.83 1.12-37.25 3.62-56.5 5.54-19.25 1.93-51.2 5.31-71 7.51-19.8 2.21-55.58 6.48-79.5 9.48-23.93 3.01-59.48 7.74-79 10.51-19.53 2.77-48.33 7.05-64 9.52-15.68 2.46-39.08 6.29-52 8.52-12.93 2.22-24.63 4.23-26 4.46-1.38 0.24-14.65 2.71-29.5 5.5-14.85 2.79-37.58 7.27-50.5 9.95-12.93 2.68-30.7 6.49-39.5 8.45-8.8 1.97-28.6 6.7-44 10.52-15.4 3.82-38.35 9.9-51 13.52-12.65 3.62-30.2 8.85-39 11.63-8.8 2.78-25.23 8.44-36.5 12.58-11.28 4.13-26.35 9.98-33.5 12.99-7.15 3.01-16.83 7.26-21.5 9.45-4.68 2.19-12.1 6.39-16.5 9.33-4.4 2.94-10.77 7.74-14.16 10.67-3.4 2.94-8.71 8.27-11.82 11.84-3.11 3.57-7.3 8.97-9.31 12-2.01 3.03-5.3 8.88-7.32 13-2.02 4.13-4.64 10.65-5.83 14.5-1.19 3.85-2.82 11.27-3.61 16.5-1.16 7.64-1.44 24.59-1.44 86.75l-0.01 77.25h102c0.1-5.81 0.29-8.85 0.47-10.5 0.19-1.65 0.63-9.07 0.98-16.5 0.35-7.43 1.51-29.25 2.56-48.5 1.05-19.25 2.17-40.85 2.48-48 0.31-7.15 0.82-15.7 1.13-19 0.31-3.3 1.4-8.25 2.42-11 1.03-2.75 4.06-8.37 6.75-12.5 2.68-4.12 8.22-10.63 12.3-14.45 4.07-3.82 11.01-9.3 15.41-12.17 4.4-2.87 12.5-7.45 18-10.19 5.5-2.73 14.27-6.55 19.5-8.48 5.22-1.93 15.57-5.75 23-8.49 7.42-2.75 23.85-8.38 36.5-12.53 12.65-4.14 31.55-10.09 42-13.21 10.45-3.12 32.05-9.25 48-13.63 15.95-4.38 44.75-11.98 64-16.88 19.25-4.9 50.07-12.49 68.5-16.87 18.42-4.38 51.72-12.01 74-16.97 22.27-4.96 54.67-12.01 72-15.66 17.32-3.65 56.02-11.52 86-17.5 29.97-5.98 74.97-14.69 100-19.37 25.02-4.67 59.22-10.98 76-14.02 16.78-3.03 52.55-9.32 79.5-13.96 26.95-4.64 58.11-9.95 69.25-11.78l20.25-3.34v-11.5c-11.37 0-14.85 0.17-15.08 0.38zm-1038.92 463.36c2.47 0.2 6.75 0.2 9.5 0 2.75-0.21 0.72-0.38-4.5-0.38-5.22 0-7.47 0.17-5 0.38zm83 8.76c0 0.89-0.51 1.23-1.25 0.83-0.69-0.37-0.53 0.19 0.36 1.25 1.08 1.29 4.44 17.63 10.24 49.92 4.75 26.4 8.83 49.13 9.07 50.5 0.25 1.38 2.97 16.23 6.07 33 3.09 16.77 5.48 31.46 5.31 32.63-0.16 1.17 0.04 1.96 0.45 1.75 0.41-0.21 0.75-0.15 0.75 0.12 0 0.27 5.62 31.44 12.5 69.25 6.87 37.81 12.68 70.1 12.91 71.75 0.23 1.65 1.82 10.42 3.54 19.5 1.71 9.08 3.21 16.59 3.33 16.71 0.12 0.11 39.82 0.23 88.22 0.26 48.4 0.03 88.3-0.29 88.67-0.71 0.37-0.42 5.63-23.26 11.7-50.76 6.06-27.5 13.95-63.73 17.52-80.5 3.57-16.77 7.33-34.55 8.35-39.5l1.84-9c7.52 38.75 12.37 61.92 15.62 76.5 3.25 14.58 8.33 35.95 11.29 47.5 2.96 11.55 7.65 28.88 10.42 38.5 2.77 9.63 5.38 17.6 5.81 17.73 0.43 0.13 39.7 0.35 87.28 0.5 47.58 0.15 85.04 0.16 83.25 0.02l-3.25-0.25 0.5-349h-65.5c-1.47 5.81-3.92 17.18-6.39 29-2.47 11.83-6.08 29.83-8.02 40-1.94 10.17-5.1 27.95-7.02 39.5-1.92 11.55-4.84 30.23-6.48 41.5-1.64 11.27-4.35 31.75-6.02 45.5-1.68 13.75-3.62 30.4-4.32 37l-1.26 12c-6.76-57.35-10-84.8-11.55-98-1.55-13.2-4.17-34.8-5.83-48-1.66-13.2-4.4-34.58-6.09-47.5-1.7-12.92-3.97-29.35-5.06-36.5-1.09-7.15-1.97-13.34-1.97-13.75 0.01-0.41-33.4-0.75-74.24-0.76l-74.25-0.01c-12.03 59.3-17.51 87.77-19.93 101.52-2.43 13.75-6.02 35.13-7.98 47.5-1.97 12.38-4.91 33.08-6.54 46-1.64 12.92-3.3 27.33-3.71 32l-0.74 8.5c-1.2-7.75-3.8-28.45-6.56-51-2.75-22.55-8.84-72.16-13.52-110.25-4.69-38.09-8.52-70.38-8.52-71.75v-2.5c-130.61 0-139 0.18-139 1.5zm865.49 173.5c0 95.98 0.12 135.13 0.26 87 0.14-48.12 0.14-126.65 0-174.5-0.14-47.85-0.26-8.48-0.26 87.5zm-269.01 96.5c0 42.9 0.12 60.23 0.27 38.5 0.15-21.73 0.15-56.83 0-78-0.15-21.17-0.27-3.4-0.27 39.5zm-167.07 264.75c-19.1 30.39-44.49 70.78-56.42 89.75-11.92 18.97-24.31 38.78-27.53 44-4.04 6.55-8.97 12.61-15.91 19.54-5.53 5.53-13.43 12.27-17.55 14.98-4.13 2.71-11.78 6.84-17 9.19-5.23 2.34-13.78 5.35-19 6.69-5.23 1.33-14.23 2.97-20 3.64-5.78 0.67-15.9 1-22.5 0.73-11.34-0.47-16.51-1.57-94-20.17-45.1-10.82-83.8-20.41-86-21.32-2.2-0.9-6.36-3.36-9.25-5.46-2.89-2.1-7.28-6.41-9.76-9.57-2.48-3.16-6.27-9.35-8.43-13.75-2.15-4.4-5.09-12.05-6.53-17-1.43-4.95-3.31-13.05-4.17-18-1.06-6.05-1.69-17.36-1.93-34.5-0.2-14.03-0.59-35.17-0.87-47-0.29-11.83-0.53-28.14-0.54-36.25l-0.02-14.75-113.5-0.01c1.2 19.77 1.77 28.89 2.05 33.01 0.28 4.13 1.61 28.2 2.96 53.5 1.35 25.3 2.7 51.17 3 57.5 0.3 6.33 0.74 13.75 0.97 16.5 0.23 2.75 0.68 10.85 1 18 0.32 7.15 0.8 15.92 1.08 19.5 0.27 3.58 1 8.75 1.62 11.5 0.62 2.75 2 7.03 3.07 9.5 1.07 2.47 3.65 6.97 5.73 10 2.08 3.03 6.65 8.24 10.15 11.6 3.5 3.35 9.07 7.82 12.37 9.93 3.3 2.11 9.15 5.28 13 7.05 3.85 1.77 10.82 4.41 15.5 5.87 4.67 1.46 14.57 3.76 22 5.12 7.42 1.35 21.37 4.23 31 6.39 9.62 2.16 30.77 6.9 47 10.53 16.22 3.64 59.65 13.41 96.5 21.72l67 15.12c34.3 0.47 44.76 0.08 52.5-0.92 6.33-0.81 15.55-2.42 20.5-3.57 4.95-1.16 12.83-3.44 17.5-5.09 4.67-1.64 11.87-4.67 16-6.74 4.12-2.07 11.1-6.45 15.5-9.74 4.4-3.29 9.97-8.18 12.37-10.88 2.4-2.69 7.81-10.06 12.01-16.39 4.21-6.33 35.06-51.1 68.56-99.5 33.5-48.4 74.16-107.12 90.36-130.5 16.2-23.37 29.62-43.06 29.83-43.75 0.29-0.99-10.68-1.25-52.56-1.25h-52.93z"/>
		<path id="Path 2" fill-rule="evenodd" class="s0" d="m35.07 865.75c-1.88 0.96-4.36 3.02-5.5 4.58-1.51 2.06-2.04 4.21-1.96 8 0.1 4.62 0.5 5.52 3.75 8.42 2.47 2.2 6.3 4.04 11.89 5.7 4.54 1.35 9.03 3.27 9.97 4.25 0.95 0.99 1.75 3.15 1.78 4.8 0.03 1.85-0.82 3.86-2.22 5.24-1.26 1.24-3.86 2.53-5.78 2.88-1.92 0.34-5.19 0.12-7.25-0.5-2.06-0.61-4.67-2.36-5.78-3.87-1.12-1.51-2.02-3.76-2-5 0.02-1.88-0.51-2.25-3.22-2.27l-3.25-0.01c1.15 6.61 2.53 9.88 3.82 11.53 1.28 1.65 3.99 3.79 6.01 4.75 2.04 0.98 5.99 1.75 8.92 1.75 3.2 0.01 6.62-0.72 8.75-1.85 1.92-1.02 4.53-3.38 5.78-5.25 1.5-2.24 2.27-4.85 2.25-7.65-0.02-2.34-0.66-5.49-1.42-7-0.77-1.51-3.13-3.7-5.25-4.87-2.12-1.17-7.12-3.08-11.11-4.25-5.34-1.57-7.65-2.79-8.75-4.63-1.25-2.08-1.29-3.02-0.25-5.57 0.88-2.18 2.28-3.38 4.75-4.12 1.92-0.58 5.19-0.77 7.25-0.43 2.47 0.41 4.44 1.56 5.78 3.37 1.12 1.51 2.02 3.31 2 4-0.02 0.73 1.22 1.25 2.97 1.25 2.85 0 2.97-0.17 2.38-3.25-0.35-1.79-1.41-4.37-2.36-5.75-0.95-1.37-3.37-3.29-5.37-4.25-2.01-0.96-5.79-1.75-8.4-1.75-2.61 0-6.29 0.79-8.18 1.75zm33.93 2.25c0 2.67 0.33 3 3 3 2.67 0 3-0.33 3-3 0-2.67-0.33-3-3-3-2.67 0-3 0.33-3 3zm65.07 21.93l-0.07 25.07c4.06 0 5-0.57 5-1.5 0-0.83 0.23-1.5 0.5-1.5 0.28 0 1.74 0.92 3.25 2.03 1.51 1.12 4.1 2.03 5.75 2.01 1.65-0.01 4.13-0.8 5.5-1.75 1.38-0.95 3.26-2.64 4.18-3.76 0.92-1.12 2.23-4.05 2.91-6.53 0.67-2.48 0.99-6.98 0.7-10-0.29-3.02-1.26-6.96-2.16-8.75-0.89-1.79-3.09-4.15-4.88-5.25-1.79-1.09-4.49-1.99-6-2-1.51 0-4.1 0.9-5.75 2l-3 2c-0.5-16.38-0.54-16.5-3.18-16.82l-2.67-0.31zm9.58-3.94c1.45-1.1 3.03-2 3.5-2 0.46 0 1.97 0.45 3.34 1 1.38 0.56 3.18 2.57 4 4.5 0.83 1.93 1.5 5.3 1.5 7.5 0 2.2-0.65 5.47-1.46 7.25-0.8 1.79-2.6 3.82-4 4.5-1.39 0.69-2.99 1.25-3.54 1.25-0.55 0-2.23-1.05-3.75-2.35-1.81-1.54-3.02-3.85-3.56-6.75-0.49-2.66-0.39-6.08 0.25-8.65 0.65-2.58 2.11-5.03 3.72-6.25zm73.34-20c0 0.55 1.53 7.42 3.4 15.25 1.87 7.84 4.35 18.64 5.5 24l2.1 9.75 6.5 0.05c7.54-30.65 10.08-40 10.52-40.55 0.44-0.55 3.04 8.23 5.78 19.5l4.98 20.5c5.38 0.44 6.33 0.03 6.64-1.25 0.22-0.96 2.76-11.42 5.63-23.25 2.86-11.82 4.93-22.28 4.58-23.25-0.38-1.07-1.48-1.65-2.84-1.5-2.04 0.23-2.55 1.79-6.25 18.94-2.22 10.27-4.35 19.05-4.73 19.5-0.38 0.45-0.99-1.21-1.35-3.69-0.36-2.47-1.97-9.67-3.57-16-1.6-6.32-3.35-13.18-3.9-15.25-0.93-3.55-1.18-3.73-4.68-3.5l-3.7 0.25-10.2 41c-5.12-25.57-7.01-34.91-7.51-37.25-0.81-3.85-1.17-4.25-3.9-4.25-1.65 0-3 0.45-3 1zm194.57 0.27c-0.21 0.7-0.31 11.84-0.23 24.75l0.16 23.48 5.5 0.5c0-31 0.37-38 1-38 0.55 0 1.73 2.59 2.63 5.75 0.89 3.17 3.29 11.6 5.34 18.75 3.61 12.62 3.81 13.01 6.63 13.32l2.9 0.31 12-40.63c0.86 31 1.2 40.12 1.31 40.25 0.1 0.14 1.32 0.25 2.69 0.25h2.5v-50l-8.5-0.03c-8.9 29.86-11.48 39.21-11.48 40.03 0.01 0.97-0.31 1.15-0.89 0.5-0.5-0.55-2.56-6.85-4.57-14-2.02-7.15-4.55-16.03-5.62-19.75l-1.94-6.75c-7.31 0-9.19 0.49-9.43 1.27zm386.44 3.98c-1.67 2.89-3.93 8.18-5.04 11.75-1.29 4.19-2 9.26-1.99 14.25 0.01 4.27 0.48 9.89 1.04 12.5 0.56 2.62 2.7 8.13 4.75 12.25 2.46 4.94 4.41 7.62 5.73 7.89 1.7 0.34 1.9 0.03 1.3-1.99-0.39-1.32-2.09-6.22-3.79-10.9-2.98-8.17-3.08-8.99-2.7-21.5 0.36-12.04 0.62-13.51 3.56-20 1.75-3.85 3.17-7.56 3.16-8.25-0.02-0.68-0.69-1.25-1.51-1.25-0.82 0-2.85 2.37-4.51 5.25zm14.63-4.04c-0.25 0.73-0.38 11.9-0.3 24.81l0.16 23.48 6.5 0.5c-0.38-16.29-0.3-16.6 3.06-20.67l3.44-4.18c15.58 24.29 16.17 24.94 19.25 24.9 1.93-0.03 3.24-0.56 3.22-1.3-0.02-0.68-3.31-6.2-7.31-12.25-4.01-6.05-8.02-12.12-8.93-13.5-1.63-2.48-1.57-2.57 6.86-12 4.67-5.22 8.48-9.83 8.46-10.25-0.03-0.41-1.51-0.76-3.3-0.78-2.91-0.04-4.38 1.22-14 12l-10.75 12.03-0.5-23.5c-4.3-0.5-5.59-0.08-5.86 0.71zm41.63 1.04c0.3 1.24 1.7 4.95 3.1 8.25 1.4 3.3 3.04 9.38 3.64 13.5 0.8 5.44 0.8 9.71 0 15.5-0.6 4.4-2.24 10.7-3.64 14-1.4 3.3-2.73 7.02-2.96 8.25q-0.42 2.26 1.09 2.25c0.83 0 2.85-2.36 4.49-5.25 1.64-2.88 3.96-8.4 5.15-12.25 1.51-4.86 2.14-9.44 2.09-15-0.05-5.13-0.81-10.32-2.14-14.5-1.14-3.57-3.42-8.86-5.08-11.75-1.7-2.98-3.72-5.25-4.65-5.25-1.2 0-1.49 0.61-1.09 2.25zm37.37-1.04c-0.25 0.73-0.38 11.9-0.3 24.81l0.16 23.48 27.5 0.5v-6h-21c-0.07-4.26-0.19-14.05-0.3-24.5l-0.2-19c-4.3-0.5-5.59-0.08-5.86 0.71zm33.36 1.79c0 2.67 0.34 3 3 3 2.67 0 3-0.33 3-3 0-2.66-0.33-3-3-3-2.66 0-3 0.34-3 3zm66 0c0 2.67 0.31 2.98 2.75 2.75 2.26-0.2 2.76-0.74 2.8-3 0.05-2.35-0.34-2.75-2.75-2.75-2.44 0-2.8 0.38-2.8 3zm85 5.5v8.5c-4.65-3.1-7.23-3.99-8.75-3.99-1.51 0-4.3 0.88-6.2 1.95-1.9 1.08-4.09 3.44-4.87 5.25-0.78 1.81-1.65 5.54-1.94 8.29-0.28 2.75 0.03 7.25 0.69 10 0.65 2.75 1.95 5.92 2.88 7.03 0.93 1.12 2.82 2.81 4.19 3.76 1.38 0.95 3.85 1.74 5.5 1.76 1.65 0.01 4.24-0.89 5.75-2.01 2.32-1.72 2.83-1.8 3.25-0.54 0.28 0.83 1.63 1.5 3 1.5h2.5v-50h-6zm-10.58 11.55c1.14-0.51 2.53-0.96 3.08-1.02 0.55-0.05 2.24 0.82 3.75 1.94 1.85 1.37 3.02 3.4 3.56 6.21 0.44 2.3 0.64 6.01 0.45 8.25-0.19 2.24-0.89 4.79-1.55 5.66-0.67 0.87-2.33 2.15-3.71 2.84-2.02 1.01-3.03 1-5.3-0.09-1.54-0.73-3.45-2.8-4.25-4.59-0.79-1.78-1.45-5.05-1.45-7.25 0-2.2 0.75-5.58 1.67-7.51 0.91-1.94 2.6-3.93 3.75-4.44zm-720.92-16.24c-1.3 1.29-1.8 3.11-1.68 6.02 0.16 3.57-0.11 4.17-1.82 4.17-1.55 0-2 0.67-2 3 0 2.34 0.45 3 2 3 1.9 0 2 0.67 2 13.5 0 12.17 0.2 13.7 2 15.5 1.24 1.24 3.34 2 5.5 2 1.93 0 3.7-0.33 3.95-0.75 0.24-0.41 0.24-1.76 0-3-0.26-1.31-1.17-2.24-2.2-2.23-0.96 0.01-2.2-0.42-2.75-0.95-0.58-0.56-0.89-5.77-0.75-12.51l0.25-11.56c4.61 0 5-0.46 5-3 0-2.53-0.39-3-2.5-3-2.34 0-2.51-0.35-2.75-5.67-0.13-3.12-0.73-5.83-1.32-6.02-0.59-0.2-1.91 0.48-2.93 1.5zm413.86 0.09q-1.72 1.76-1.54 5.93c0.16 3.57-0.11 4.17-1.82 4.17-1.55 0-2 0.67-2 3 0 2.34 0.45 3 2 3 1.9 0 2 0.67 2 13.5 0 12.17 0.2 13.7 2 15.5 1.24 1.24 3.34 2 5.5 2 2.23 0 3.69-0.54 4-1.5 0.28-0.82 0.28-2.17 0-3-0.27-0.82-1.51-1.61-2.75-1.75-2.18-0.24-2.25-0.62-2.5-12.5l-0.25-12.25c4.61 0 5-0.46 5-3 0-2.53-0.39-3-2.5-3-2.35 0-2.5-0.32-2.54-5.39-0.03-3.71-0.49-5.56-1.47-5.93-0.78-0.3-2.19 0.25-3.13 1.22zm249.63-0.3c-1.82 1.22-2.23 2.38-2.12 5.96 0.11 3.82-0.15 4.44-1.87 4.44-1.55 0-2 0.67-2 3 0 2.34 0.45 3 2 3 1.9 0 2 0.67 2 13.5 0 12.17 0.2 13.7 2 15.5q2 2 6 2c2.2 0 4-0.33 3.99-0.75-0.01-0.41-0.23-1.76-0.5-3-0.31-1.41-1.33-2.34-2.74-2.5-2.18-0.24-2.25-0.62-2.5-12.5l-0.25-12.25c4.61 0 5-0.46 5-3 0-2.53-0.39-3-2.5-3-2.37 0-2.49-0.27-2.39-5.44 0.05-2.99-0.34-5.67-0.88-5.96-0.54-0.28-2 0.17-3.24 1zm-917.99 12.33l-2.84 2.92c-0.14-4.32-0.7-4.85-2.66-4.85h-2.5v36h6c0.5-26.76 0.58-27.24 3-29.13 1.38-1.07 3.52-1.93 4.75-1.91 1.24 0.02 2.93 1.06 3.76 2.29 1.16 1.73 1.51 5.35 1.5 15.5l-0.01 13.25 5.5-0.5c0.98-26.1 1.11-26.76 3.5-28.63 1.38-1.07 3.18-1.94 4-1.92 0.83 0.02 2.52 0.72 3.75 1.55 2.16 1.44 2.25 2.1 2.25 15.5v14h6c0-24.22-0.4-28.94-1.5-31.5-0.82-1.92-2.4-3.95-3.5-4.5-1.1-0.55-3.57-1-5.5-1-2.55 0-4.31 0.81-6.5 3l-3 3c-4.52-5.43-5.77-6-9.07-6-3.19 0-4.7 0.64-6.93 2.93zm86-2.22c-0.82 0.3-2.56 1.5-3.85 2.67-1.3 1.17-2.77 3.25-3.28 4.62-0.67 1.79-0.56 2.71 0.35 3.24 0.71 0.4 1.96 0.75 2.78 0.78 0.83 0.02 2.07-1.1 2.75-2.49 0.82-1.64 2.39-2.74 4.5-3.14 1.79-0.34 4.56-0.23 6.15 0.25 1.98 0.59 3.21 1.82 3.86 3.86 0.72 2.27 0.62 3.18-0.4 3.71-0.75 0.4-3.83 1.01-6.86 1.37-3.02 0.36-7.02 1.39-8.88 2.29-1.87 0.9-4.01 2.87-4.75 4.38-0.75 1.52-1.37 3.88-1.37 5.25 0 1.38 0.57 3.68 1.25 5.12 0.69 1.44 2.49 3.24 4 4 1.52 0.76 4.44 1.4 6.5 1.41 2.4 0.02 5.11-0.88 7.5-2.5 3.64-2.45 3.77-2.47 4.25-0.53 0.32 1.26 1.34 2 2.75 2 2.25 0 2.25-0.05 1.96-14.25-0.17-7.83-0.51-15.26-0.75-16.5-0.25-1.23-1.92-3.14-3.71-4.24-2.17-1.34-4.9-1.97-8.25-1.92-2.75 0.04-5.67 0.32-6.5 0.62zm7.29 21.1c1.22-0.3 3-0.6 3.96-0.67 1.31-0.1 1.75 0.62 1.75 2.86 0 2.11-0.81 3.61-2.75 5.05-1.51 1.12-3.65 2.29-4.75 2.59-1.1 0.31-3.01 0.29-4.25-0.04-1.23-0.33-2.7-1.5-3.25-2.6-0.55-1.1-0.66-2.69-0.25-3.55 0.42-0.85 2.23-1.9 4.04-2.33 1.81-0.43 4.29-1.02 5.5-1.31zm100.71-21.1c-0.82 0.3-2.56 1.5-3.85 2.67-1.3 1.17-2.77 3.25-3.28 4.62-0.67 1.79-0.56 2.71 0.35 3.24 0.71 0.4 1.96 0.75 2.78 0.78 0.83 0.02 2.07-1.1 2.75-2.49 0.82-1.64 2.39-2.74 4.5-3.14 1.79-0.34 4.56-0.23 6.15 0.25 1.98 0.59 3.21 1.82 3.86 3.86 0.72 2.27 0.62 3.18-0.4 3.71-0.75 0.4-3.83 1.01-6.86 1.37-3.02 0.36-7.02 1.39-8.88 2.29-1.87 0.9-4.01 2.87-4.75 4.38-0.75 1.52-1.37 3.88-1.37 5.25 0 1.38 0.57 3.68 1.25 5.12 0.69 1.44 2.49 3.24 4 4 1.52 0.76 4.33 1.38 6.25 1.38 1.93 0 4.85-0.67 6.5-1.5 1.65-0.82 3-1.95 3-2.5 0-0.55 0.45-1 1-1 0.55 0 1.23 0.9 1.5 2 0.32 1.26 1.34 2 2.75 2 2.25 0 2.25-0.05 1.96-14.25-0.17-7.83-0.51-15.26-0.75-16.5-0.25-1.23-1.92-3.14-3.71-4.24-2.17-1.34-4.9-1.97-8.25-1.92-2.75 0.04-5.67 0.32-6.5 0.62zm7.29 21.1c1.22-0.3 3-0.6 3.96-0.67 1.31-0.1 1.75 0.62 1.75 2.86 0 2.11-0.81 3.61-2.75 5.05-1.51 1.12-3.65 2.29-4.75 2.59-1.1 0.31-3.01 0.29-4.25-0.04-1.23-0.33-2.7-1.5-3.25-2.6-0.55-1.1-0.66-2.69-0.25-3.55 0.42-0.85 2.23-1.9 4.04-2.33 1.81-0.43 4.29-1.02 5.5-1.31zm23.46-20.27c-1.51 0.81-3.2 2.36-3.75 3.46-0.55 1.1-1.02 3.69-1.04 5.75-0.02 2.14 0.73 4.74 1.75 6.06 1.06 1.36 5.08 3.46 9.79 5.13 6.94 2.45 8 3.14 8 5.18 0 1.65-0.9 2.77-3 3.73-1.78 0.82-4.32 1.13-6.25 0.77-2.38-0.45-3.58-1.42-4.5-3.63-0.86-2.08-1.93-3-3.5-3-1.23 0.01-2.52 0.8-2.86 1.76-0.33 0.97 0 3.04 0.75 4.62 0.75 1.57 2.94 3.78 4.86 4.91 2.67 1.56 4.74 1.94 8.72 1.63 4.26-0.33 5.82-1.01 8.5-3.68 2.72-2.7 3.28-4.02 3.28-7.67 0-3.33-0.6-5.02-2.5-6.99-1.49-1.55-5.41-3.49-9.74-4.83-3.99-1.23-7.48-2.8-7.75-3.49-0.28-0.68-0.29-1.81-0.03-2.5 0.26-0.68 1.5-1.58 2.75-1.98 1.25-0.41 3.29-0.75 4.52-0.75 1.24-0.01 3.27 1.09 4.5 2.44 1.24 1.36 3.04 2.48 4 2.5 0.97 0.03 2.03-0.52 2.37-1.21 0.34-0.68 0.34-2.26 0-3.5-0.34-1.23-2.08-3.14-3.87-4.24-2.02-1.24-4.95-1.99-7.75-1.96-2.47 0.02-5.73 0.69-7.25 1.49zm53.25-0.83c-0.82 0.3-2.55 1.5-3.84 2.67-1.29 1.17-2.98 3.36-3.75 4.87-0.77 1.52-1.68 5.12-2.01 8-0.34 2.89-0.11 7.17 0.5 9.5 0.61 2.34 2.57 5.88 4.35 7.87 2.8 3.11 4.03 3.7 8.75 4.16 4.43 0.44 6.19 0.14 9-1.53 1.93-1.13 4.12-3.12 4.88-4.41 0.75-1.28 1.09-3.12 0.75-4.09-0.35-0.96-1.53-1.75-2.63-1.75-1.1 0-2.67 1.13-3.5 2.5-0.91 1.52-2.77 2.74-4.75 3.11-2.07 0.38-4.43 0.02-6.5-1-2.12-1.05-3.6-2.74-4.26-4.86-0.56-1.78-1.01-3.58-1-4 0.01-0.41 5.53-0.74 12.26-0.73l12.25 0.01c-0.9-7.38-2.02-11.27-3.08-13.39-1.05-2.13-3.27-4.7-4.92-5.72-1.67-1.03-4.77-1.83-7-1.81-2.2 0.03-4.67 0.3-5.5 0.6zm0.75 6.79c1.6-0.87 4.01-1.28 5.75-0.97 1.65 0.29 3.74 1.3 4.65 2.25 0.9 0.95 1.92 2.74 2.25 3.97 0.59 2.22 0.45 2.25-17.4 2.25l1-3c0.55-1.65 2.24-3.67 3.75-4.5zm100.61-6.58c-1.18 0.43-3.03 1.87-4.1 3.19-1.08 1.31-2.22 3.07-2.54 3.89-0.33 0.83-0.06 2.07 0.6 2.77 0.65 0.7 1.86 1.27 2.68 1.28 0.83 0.01 2.07-1.13 2.75-2.52 0.82-1.64 2.39-2.74 4.5-3.14 1.79-0.34 4.56-0.23 6.15 0.25 1.98 0.59 3.21 1.82 3.86 3.86 0.72 2.27 0.62 3.18-0.4 3.71-0.75 0.4-3.83 1.01-6.86 1.37-3.02 0.36-6.85 1.27-8.5 2.02-1.65 0.75-3.78 2.73-4.75 4.39-0.96 1.66-1.75 4.14-1.75 5.51 0 1.38 0.57 3.68 1.25 5.12 0.69 1.44 2.49 3.24 4 4 1.52 0.76 4.44 1.4 6.5 1.41 2.4 0.02 5.11-0.88 7.5-2.5 3.64-2.45 3.77-2.47 4.25-0.53 0.32 1.26 1.34 2 2.75 2 2.25 0 2.25-0.05 1.96-14.25-0.17-7.83-0.51-15.26-0.75-16.5-0.25-1.23-1.92-3.14-3.71-4.24q-3.25-2-8.25-1.94c-2.75 0.03-5.96 0.42-7.14 0.85zm7.93 20.89c1.22-0.3 3-0.6 3.96-0.67 1.31-0.1 1.75 0.62 1.75 2.86 0 2.11-0.81 3.61-2.75 5.05-1.51 1.12-3.65 2.29-4.75 2.59-1.1 0.31-3.01 0.29-4.25-0.04-1.23-0.33-2.7-1.5-3.25-2.6-0.55-1.1-0.66-2.69-0.25-3.55 0.42-0.85 2.23-1.9 4.04-2.33 1.81-0.43 4.29-1.02 5.5-1.31zm28.74-19.22c-3.02 2.49-3.14 2.51-3.09 0.5 0.05-1.57-0.55-2.09-2.44-2.09h-2.5v36l5.5-0.5c0.88-23.11 1.38-26.81 2.5-27.93 0.83-0.83 2.85-1.79 4.5-2.13 2.18-0.45 3.69-0.07 5.5 1.39 2.42 1.94 2.51 2.43 2.75 15.59l0.25 13.58h5l-0.5-32.19c-5.08-4.06-7.27-4.8-10.16-4.8-3.01-0.01-5.04 0.71-7.31 2.58zm32.97-1.88c-0.82 0.3-2.56 1.5-3.85 2.67-1.3 1.17-2.77 3.25-3.28 4.62-0.67 1.79-0.56 2.71 0.35 3.24 0.71 0.4 1.96 0.75 2.78 0.78 0.83 0.02 2.07-1.1 2.75-2.49 0.72-1.45 2.43-2.77 4-3.11 1.52-0.31 4.1-0.32 5.75-0.02 2.08 0.39 3.47 1.52 4.5 3.67 1.34 2.75 1.34 3.2 0 3.98-0.82 0.48-3.97 1.17-7 1.53-3.02 0.36-6.85 1.27-8.5 2.02-1.65 0.75-3.78 2.73-4.75 4.39-0.96 1.66-1.75 4.14-1.75 5.51 0 1.38 0.57 3.68 1.25 5.12 0.69 1.44 2.49 3.24 4 4 1.52 0.76 4.44 1.4 6.5 1.41 2.4 0.02 5.11-0.88 7.5-2.5 3.64-2.45 3.77-2.47 4.25-0.53 0.32 1.26 1.33 2 2.75 2 2.25 0 2.25-0.05 1.95-14.25-0.17-7.84-0.51-15.26-0.75-16.5-0.25-1.23-1.91-3.14-3.7-4.24-2.17-1.34-4.9-1.97-8.25-1.92-2.75 0.04-5.67 0.32-6.5 0.62zm7.29 21.1c1.22-0.3 3-0.6 3.96-0.67 1.31-0.1 1.75 0.62 1.75 2.86 0 2.11-0.81 3.61-2.75 5.05-1.51 1.12-3.65 2.29-4.75 2.59-1.1 0.31-3.01 0.29-4.25-0.04-1.23-0.33-2.7-1.5-3.25-2.6-0.55-1.1-0.66-2.69-0.25-3.55 0.42-0.85 2.23-1.9 4.04-2.33 1.81-0.43 4.29-1.02 5.5-1.31zm25.96-19.8c-1.78 1.1-3.99 3.46-4.89 5.24-0.9 1.79-1.88 5.95-2.17 9.25-0.37 4.19-0.03 7.36 1.11 10.5 0.9 2.48 2.81 5.63 4.25 7 1.96 1.87 3.8 2.54 7.29 2.65 2.6 0.07 5.55-0.48 6.66-1.26 1.1-0.77 2.34-1.4 2.75-1.39 0.42 0 0.49 1.69 0.16 3.75-0.33 2.08-1.66 4.76-3 6-1.32 1.24-3.53 2.25-4.91 2.25-1.37 0-3.62-0.45-5-1-1.37-0.55-2.5-1.67-2.5-2.5 0-0.82-1.23-1.76-2.75-2.08-1.51-0.32-2.89-0.43-3.06-0.25-0.17 0.18-0.06 1.68 0.24 3.33 0.31 1.65 1.72 4.13 3.16 5.5 1.92 1.85 3.95 2.6 7.76 2.88 3.42 0.25 6.25-0.17 8.4-1.25 1.79-0.89 4.23-3.31 5.41-5.38 2.01-3.48 2.17-5.17 2.25-23.75l0.09-20c-4.24-0.53-5.14-0.12-5.28 0.94-0.18 1.33-0.63 1.26-2.97-0.47-1.57-1.17-4.24-2.02-6.25-2-1.92 0.02-4.96 0.94-6.75 2.04zm3.65 5.07c0.88-0.56 2.39-1.03 3.35-1.05 0.97-0.01 3.14 1.21 4.84 2.72 2.3 2.06 3.22 3.89 3.63 7.25 0.3 2.48 0.03 6.19-0.59 8.25-0.76 2.55-2.09 4.24-4.13 5.25-1.95 0.98-3.94 1.24-5.69 0.75-1.49-0.41-3.51-2.1-4.5-3.75-1.06-1.76-1.8-4.96-1.8-7.75 0-2.61 0.73-6.07 1.64-7.7 0.91-1.62 2.37-3.41 3.25-3.97zm31.11-4.83c-1.84 1.24-4.22 3.83-5.29 5.75-1.06 1.93-2.16 5.75-2.43 8.5-0.28 2.75-0.01 6.92 0.6 9.25 0.61 2.34 2.58 5.88 4.36 7.87 2.91 3.24 3.88 3.67 9.25 4.08 5.23 0.39 6.49 0.12 9.75-2.12 2.07-1.42 4.03-3.59 4.37-4.83 0.34-1.23 0.34-2.81 0-3.5-0.34-0.68-1.52-1.25-2.62-1.25-1.1 0-2.45 0.9-3 2-0.55 1.1-2.23 2.48-3.75 3.07-1.51 0.59-4.21 0.81-6 0.5-2.25-0.39-3.86-1.57-5.24-3.82-1.1-1.78-2-4.03-2-5-0.01-1.57 1.24-1.75 12.24-1.73l12.25 0.01c-0.9-7.38-2.02-11.27-3.08-13.39-1.05-2.13-3.27-4.7-4.92-5.72-1.65-1.02-4.83-1.87-7.07-1.89-2.6-0.02-5.27 0.79-7.42 2.22zm2.74 5.25c1.6-0.87 4.01-1.28 5.75-0.97 1.65 0.29 3.74 1.3 4.65 2.25 0.9 0.95 1.92 2.74 2.25 3.97 0.59 2.22 0.45 2.25-17.4 2.25l1-3c0.55-1.65 2.24-3.67 3.75-4.5zm34.25-4.57l-2.84 2.92c-0.14-4.32-0.7-4.85-2.66-4.85h-2.5v36l5.5-0.5c0.98-26.1 1.11-26.76 3.5-28.63 1.38-1.07 3.52-1.93 4.75-1.91 1.24 0.02 2.93 1.06 3.76 2.29 1.16 1.73 1.51 5.35 1.5 15.5-0.01 11.94 0.17 13.26 1.74 13.3 0.97 0.02 2.31-0.54 2.99-1.25 0.85-0.88 1.23-4.97 1.21-12.8-0.02-8.77 0.33-12.03 1.51-13.75 0.85-1.23 2.78-2.51 4.29-2.82 1.72-0.36 3.6 0.01 5 1 2.15 1.5 2.25 2.19 2.25 15.57v14h6c0-22.63-0.45-29.05-1.19-30.75-0.66-1.51-2.12-3.52-3.25-4.47-1.13-0.95-3.74-1.74-5.81-1.75-2.85-0.02-4.47 0.69-6.75 2.97l-3 3c-4.52-5.43-5.77-6-9.07-6-3.19 0-4.7 0.64-6.93 2.93zm48.93-0.66c-1.88 1.24-4.3 4.05-5.36 6.25-1.07 2.19-2.13 6.01-2.36 8.48-0.23 2.48 0.08 6.42 0.69 8.75 0.61 2.34 2.57 5.88 4.35 7.87 2.8 3.11 4.03 3.7 8.75 4.16 4.45 0.44 6.18 0.14 9-1.55 1.93-1.15 4.28-3.36 5.22-4.91 1.35-2.22 1.46-3.09 0.5-4.08-0.67-0.7-2-1.26-2.97-1.25-0.96 0.01-2.2 0.91-2.75 2.01-0.55 1.1-2.23 2.48-3.75 3.07-1.51 0.59-4.21 0.81-6 0.5-2.25-0.39-3.86-1.57-5.24-3.82-1.1-1.78-2-4.03-2-5-0.01-1.57 1.24-1.75 12.24-1.73l12.25 0.01c-0.9-7.38-2.02-11.27-3.08-13.39-1.05-2.13-3.27-4.7-4.92-5.72-1.65-1.02-4.83-1.87-7.07-1.89-2.59-0.02-5.31 0.8-7.5 2.24zm2.82 5.23c1.6-0.87 4.01-1.28 5.75-0.97 1.65 0.29 3.74 1.3 4.65 2.25 0.9 0.95 1.92 2.74 2.25 3.97 0.59 2.22 0.45 2.25-17.4 2.25l1-3c0.55-1.65 2.24-3.67 3.75-4.5zm34.28-4.91c-3.02 2.49-3.14 2.51-3.09 0.5 0.05-1.57-0.55-2.09-2.44-2.09h-2.5v36l5.5-0.5c0.88-23.11 1.38-26.81 2.5-27.93 0.83-0.83 2.85-1.79 4.5-2.13 2.18-0.45 3.69-0.07 5.5 1.39 2.42 1.94 2.51 2.43 2.75 15.59l0.25 13.58h5l-0.5-32.19c-5.08-4.06-7.27-4.8-10.16-4.8-3.01-0.01-5.04 0.71-7.31 2.58zm216.97 0.34l-2.84 2.92c-0.14-4.32-0.7-4.85-2.66-4.85h-2.5v36l5.5-0.5c0.28-16.27 0.39-22.01 0.43-23.25 0.04-1.23 1.18-3.37 2.53-4.75 1.35-1.37 3.6-2.5 5-2.5 1.52 0 3.15 0.9 4.05 2.25 1.16 1.73 1.51 5.35 1.5 15.5l-0.01 13.25c3.88 0 5.23-0.67 5.5-1.5 0.28-0.82 0.5-6.67 0.5-13 0-10.86 0.14-11.63 2.46-14 1.35-1.37 3.26-2.5 4.25-2.5 0.99-0.01 2.81 0.67 4.04 1.5 2.16 1.44 2.25 2.1 2.25 15.5v14h6c0.05-23.81-0.36-28.5-1.47-31.25-0.84-2.06-2.43-4.2-3.53-4.75-1.1-0.55-3.57-1-5.5-1-2.42 0-4.49 0.88-6.75 2.86l-3.25 2.86c-4.06-5.17-5.28-5.72-8.57-5.72-3.19 0-4.7 0.64-6.93 2.93zm80.99-0.68c-1.85 1.24-4.17 3.6-5.13 5.25-0.97 1.65-2.06 5.48-2.42 8.5-0.37 3.11-0.17 7.35 0.46 9.75 0.61 2.34 2.57 5.89 4.35 7.89 2.93 3.27 3.86 3.67 9.25 4.05 4.68 0.33 6.66 0.01 9-1.47 1.65-1.04 3.62-2.98 4.38-4.3 0.75-1.33 1.09-3.2 0.75-4.17-0.35-0.96-1.3-1.75-2.13-1.75-0.82 0-2.4 1.13-3.5 2.5-1.1 1.38-3.46 2.76-5.25 3.08-1.84 0.33-4.5 0.01-6.13-0.75-1.59-0.73-3.5-2.56-4.25-4.08-0.75-1.51-1.37-3.42-1.37-4.25 0-1.25 2.03-1.49 12.25-1.49l12.25 0.02c-0.94-8.16-2.06-12.02-3.1-13.85-1.04-1.82-3.25-4.17-4.9-5.21-1.65-1.05-4.83-1.92-7.07-1.94-2.59-0.02-5.29 0.79-7.44 2.22zm2.76 5.25c1.6-0.87 4.01-1.28 5.75-0.97 1.65 0.29 3.74 1.3 4.65 2.25 0.9 0.95 1.92 2.74 2.25 3.97 0.59 2.22 0.45 2.25-17.4 2.25l1-3c0.55-1.65 2.24-3.67 3.75-4.5zm-961.75 11.5v18h6v-36h-6zm856 0v18h6v-36h-6zm66 0v18h6v-36h-6zm-546 63.02c-4.12 1.11-11.55 3.99-16.5 6.4-4.95 2.41-12.94 7.01-17.76 10.23-4.83 3.22-8.77 6.08-8.76 6.35 0.01 0.28 2.75 5.45 6.1 11.5 3.35 6.05 10.33 18.54 15.51 27.75l9.41 16.75c41.18-20.65 45.57-22.5 45.86-21.16 0.2 0.92 0.09 5.38-0.25 9.91l-0.61 8.25-27.5 0.5c0 4.47 3.07 6.81 20 17.72 11 7.08 23.27 14.88 27.25 17.33l7.25 4.45c43.73-19.76 57-26.06 57.71-26.75 0.71-0.68 1.29-2.15 1.29-3.25 0-1.1-0.56-2.19-1.25-2.44-0.68-0.24-6.65-0.67-13.25-0.95-6.6-0.29-12.11-0.54-12.25-0.56-0.13-0.03-0.01-4.88 0.28-10.8 0.29-5.91 0.78-12.77 1.09-15.25 0.48-3.78 0.18-4.98-1.87-7.5-1.34-1.65-15.45-12.51-31.34-24.13-15.9-11.62-30.93-22.18-33.41-23.45-3.26-1.68-6.56-2.4-12-2.62-5.2-0.21-9.79 0.32-15 1.72zm12.5 11.37c2.75-1.3 5.23-2.36 5.5-2.36 0.28 0.01 3.77 2.14 15.02 9.47l-0.52 25.91-41 19.5-6.83-14.21c-3.76-7.81-7.7-15.43-10.67-19.7l16.75-8.12c9.22-4.47 19-9.19 21.75-10.49zm31.12 45.11c0.34-16.77 0.79-30.5 1-30.5 0.21 0 8.82 6.08 19.13 13.51 12.12 8.73 19.18 14.48 19.96 16.25 0.66 1.51 1.22 3.98 1.25 5.49 0.02 1.52-0.62 5.34-1.43 8.5-0.81 3.17-1.6 8.89-1.75 12.72-0.25 6.28-0.08 7 1.72 7.35 1.1 0.21 2.32 0.67 2.72 1.03 0.39 0.36-5.46 3.88-26.72 14.99l-26.69-18.34 10.19-0.5zm-131.49-44.25c-0.83 0.94 0.39 4.07 4.89 12.5 3.29 6.19 5.99 11.59 5.99 12 0 0.42-6.07 3.79-13.5 7.5-11.52 5.76-13.71 7.23-14.89 10-0.8 1.86-2.98 19.5-5.11 41.25-3.58 36.57-3.66 38.22-2.11 43.75 1.01 3.62 3.37 8.06 6.35 11.97 2.62 3.41 7.68 8.57 11.25 11.45 3.58 2.88 10.1 7.38 14.5 9.99 4.4 2.61 11.08 6.12 14.83 7.8 6.68 2.97 6.86 3 8 1.08 0.65-1.08 2.36-4.01 3.8-6.5 1.45-2.5 8.09-13.87 14.75-25.29 6.67-11.41 12.12-21.08 12.11-21.5 0-0.41-5.97-4.56-13.25-9.21-7.28-4.66-17.06-10.89-21.74-13.85l-8.5-5.37c16.68-7.8 19.18-8.57 19.74-7.6 0.4 0.71 3.1 5.67 6 11.04 4.03 7.47 5.85 9.89 7.76 10.34 1.38 0.33 2.79 0.21 3.14-0.25 0.35-0.47 1.16-15.47 1.8-33.35 0.95-26.56 0.93-32.71-0.13-33.65-0.72-0.63-12.33-8.85-25.81-18.26-13.47-9.41-25.46-17.1-26.63-17.1-1.18 0.01-2.64 0.58-3.24 1.26zm22.02 26.32c-0.9-2.02-0.88-2.42 0.1-1.9 0.69 0.36 6.82 4.07 25.98 15.83l-0.65 13c-0.36 7.15-0.9 14.35-1.72 19l-2.43-3.75c-1.33-2.06-2.65-3.75-2.93-3.75-0.27 0-12.2 6.53-26.5 14.5-14.3 7.98-26.2 14.39-26.46 14.25-0.25-0.13 0.42-9.7 1.49-21.25 1.08-11.55 1.96-22.01 1.96-23.25 0.01-1.3 1.59-3.73 3.76-5.76 2.43-2.28 5.34-3.84 8.25-4.44 2.48-0.51 7.99-2.53 12.25-4.49 4.27-1.95 7.82-3.98 7.9-4.49 0.08-0.52-0.37-2.09-1-3.5zm-24.41 74.74c5.37-3.4 10.1-6.22 10.51-6.25 0.42-0.03 9.19 5.65 19.5 12.62 10.32 6.96 18.87 12.81 19 13 0.14 0.18-3.23 5.39-7.48 11.57-4.25 6.19-8.87 13.38-12.77 20.69l-40.5-26.94 0.02-7.75c0.01-4.26 0.45-8.42 0.98-9.25 0.54-0.82 5.37-4.28 10.74-7.69zm119.78 2.94c-0.23 0.69-0.63 3.28-0.87 5.75-0.25 2.48-1.44 13.28-2.66 24-1.21 10.73-2.38 19.62-2.6 19.75-0.21 0.14-3.65-2.27-7.64-5.35-3.98-3.08-7.36-6-7.5-6.5-0.13-0.49 2.9-5.62 6.75-11.4 3.86-5.77 6.78-11.17 6.5-12-0.27-0.82-1.06-1.74-1.75-2.04-0.68-0.29-14.52 5.38-30.75 12.61-16.22 7.23-29.6 13.21-29.72 13.29-0.12 0.08-1.76 10.04-3.64 22.14-1.88 12.1-3.97 25.83-4.64 30.5-0.67 4.68-1.06 9.63-0.86 11 0.27 1.89 0.96 2.5 2.8 2.5 1.93 0 3.85-1.97 9.27-9.5 3.76-5.22 7.27-9.61 7.81-9.75 0.54-0.13 6.5 3.81 13.23 8.77 6.74 4.97 13.15 9.01 14.25 8.98 1.1-0.03 18.2-6.14 38-13.59 19.8-7.45 37.74-14.75 39.85-16.23 2.12-1.47 5.34-4.93 7.16-7.68 1.81-2.75 4.2-7.25 5.29-10 1.1-2.75 2.75-8.6 3.67-13 0.93-4.4 1.9-14.52 2.17-22.5 0.28-7.97 0.13-15.01-0.32-15.65-0.52-0.74-11.44-1.91-30.32-3.25-16.22-1.15-30.3-2.09-31.27-2.09-0.98-0.01-1.97 0.56-2.21 1.24zm10.64 10.12c0.09-0.35 2.22-0.34 4.75 0.03 2.53 0.37 9.54 1.34 15.59 2.14 6.05 0.81 12.47 1.47 14.25 1.47 1.94 0 3.25 0.5 3.25 1.24 0 0.69-1.35 11.15-3 23.25-1.64 12.1-2.98 22.45-2.98 23 0.01 0.55-3.48 2.46-7.75 4.24-4.27 1.78-8.1 3.24-8.52 3.25-0.41 0.01-4.91-2.54-10-5.65-5.08-3.12-9.82-6.16-10.53-6.75-1.03-0.88-0.7-5.37 1.75-23.34 1.67-12.23 3.1-22.53 3.19-22.88zm-57.37 27.48c7.46-3.11 13.71-5.47 13.89-5.25 0.18 0.22-0.58 1.98-1.68 3.9-1.69 2.96-1.78 3.7-0.62 4.75 0.76 0.69 11.81 8.45 24.55 17.25 12.74 8.8 23.16 16.23 23.15 16.5 0 0.28-2.16 1.36-4.79 2.4-2.63 1.05-12.1 4.76-21.04 8.25-8.93 3.5-17.15 6.35-18.25 6.35-1.1 0-3.8-0.9-6-2-2.2-1.1-4.84-3.23-5.87-4.75-1.02-1.51-5.09-5.45-16.19-14.75l-4.99 5 0.09-3c0.06-1.65 0.63-8.47 1.28-15.15 0.65-6.69 1.57-12.54 2.04-13 0.47-0.47 6.96-3.39 14.43-6.5z"/>
		<path id="Path 3" class="s1" d="m995.98 180.24c-5.63 9.49-11.47 19.28-12.98 21.76-1.51 2.47-7.91 13.27-14.23 24-6.32 10.72-12 20.51-12.63 21.75-0.63 1.24-1.14 2.47-1.14 2.75 0 0.27 4.39 3.36 9.75 6.85 5.36 3.49 17.62 11.43 27.25 17.64 9.62 6.22 19.75 12.75 22.5 14.53 2.75 1.77 12.2 7.93 21 13.67 15.16 9.9 16.2 10.79 19.78 16.88 2.08 3.54 4.78 9.58 6 13.43 1.83 5.78 2.21 9.26 2.17 20-0.04 11.39-0.37 13.99-2.73 21-1.48 4.4-8.55 18.8-15.7 32-7.16 13.2-13.01 24.34-13.01 24.75-0.01 0.41 19.45 0.75 43.24 0.75l43.25-0.01c14.71-24.4 24.34-40.26 30.88-50.99 6.54-10.73 12.94-21.75 14.22-24.5 1.28-2.75 3.01-8.26 3.86-12.25 0.85-3.99 1.54-10.29 1.53-14 0-3.71-0.48-9.68-1.07-13.25-0.59-3.57-2.47-10.1-4.19-14.5-1.71-4.4-5.23-11.15-7.81-15-2.58-3.85-7.78-10.25-11.55-14.21-4.08-4.29-31.02-26.16-66.37-53.9-32.72-25.68-62.26-48.88-65.64-51.55l-6.14-4.87zm-541.56 712.77c0 11.82 0.15 16.55 0.33 10.5 0.17-6.05 0.17-15.73 0-21.5-0.18-5.78-0.33-0.83-0.33 11zm-37 2.5c0 10.45 0.15 14.5 0.33 9 0.18-5.5 0.18-14.05-0.01-19-0.18-4.95-0.32-0.45-0.32 10zm106.97 6c0 7.15 0.16 9.85 0.35 6 0.19-3.85 0.19-9.7 0-13-0.2-3.3-0.35-0.15-0.35 7zm224 0c0 7.15 0.16 9.85 0.35 6 0.19-3.85 0.19-9.7 0-13-0.2-3.3-0.35-0.15-0.35 7zm-230.01 1.5c0 6.32 0.16 8.8 0.36 5.5 0.2-3.3 0.2-8.48 0-11.5-0.2-3.03-0.36-0.33-0.36 6zm224 0c0 6.32 0.16 8.8 0.36 5.5 0.2-3.3 0.2-8.48 0-11.5-0.2-3.03-0.36-0.33-0.36 6z"/>
	</g>
</svg>